<?xml version="1.0" encoding="utf-8" standalone="no"?><svg xmlns="http://www.w3.org/2000/svg" xmlns:xlink="http://www.w3.org/1999/xlink" width="55.092600000000004mm" height="55.092600000000004mm" viewBox="4081 3221.1 216.9 216.9"><title>Photo View</title><rect x="4081" y="3221.1" width="216.9" height="216.9" fill="#000000" stroke="none"/><defs xmlns="http://www.w3.org/2000/svg" id="patterns"><pattern id="gridPattern" x="4000" y="3000" width="10" height="10" patternUnits="userSpaceOnUse"><rect id="gridCell" x="0" y="0" width="0.37038" height="0.37038" fill="#FFFFFF" stroke="none"/></pattern><pattern id="gridPattern2" x="4000.37038" y="3000.37038" width="10" height="10" patternUnits="userSpaceOnUse"><path id="gridCell2" d="M10 0V10H-10" fill="none" stroke="#FFFFFF" stroke-width="0.37038" stroke-opacity="0.6"/></pattern><marker id="arrowOnStart" orient="auto" refY="0" refX="0" style="overflow:visible" markerUnits="strokeWidth"><path d="M 2,0 l 4,-2, 0,4 z" stroke-width="6"/></marker><marker id="arrowOnEnd" orient="auto" refY="0" refX="0" style="overflow:visible" markerUnits="strokeWidth"><path d="M -2,0 l -4,-2, 0,4 z" stroke-width="6"/></marker><marker id="arrowOnStartChrome" orient="auto" refY="0" refX="0" style="overflow:visible" markerUnits="strokeWidth"><path d="M 2,0 l 4,-2, 0,4 z" stroke-width="3" stroke="#FFFFFF"/></marker><marker id="arrowOnEndChrome" orient="auto" refY="0" refX="0" style="overflow:visible" markerUnits="strokeWidth"><path d="M -2,0 l -4,-2, 0,4 z" stroke-width="3" stroke="#FFFFFF"/></marker><svg id="icon-lock" title="Unlock" viewBox="0 0 20 20" height="20" width="20"><path stroke="#F0F" stroke-width="2" style="cursor:pointer;fill-opacity:.001;fill:#fff" d="M 5 7 C 5 -1 15 -1 15 7L1 7 1 19 19 19 19 7 15 7"/></svg><mask id="topBoardSolderMask" maskUnits="userSpaceOnUse" x="4091" y="3231.1" width="196.9" height="196.9"><path d="M4156.6182 3428,4091 3362.3818,4091 3296.7639,4156.6182 3231.1457,4222.2361 3231.1457,4287.8543 3296.7639,4287.8543 3362.3818,4222.2361 3428z" stroke="none" fill="white"/></mask><mask id="topSignalSolderMask" maskUnits="userSpaceOnUse" x="4091" y="3231.1" width="196.9" height="196.9"><path d="M4156.6182 3428,4091 3362.3818,4091 3296.7639,4156.6182 3231.1457,4222.2361 3231.1457,4287.8543 3296.7639,4287.8543 3362.3818,4222.2361 3428z" stroke="none" fill="white"/></mask><mask id="bottomBoardSolderMask" maskUnits="userSpaceOnUse" x="4091" y="3231.1" width="196.9" height="196.9"><path d="M4156.6182 3428,4091 3362.3818,4091 3296.7639,4156.6182 3231.1457,4222.2361 3231.1457,4287.8543 3296.7639,4287.8543 3362.3818,4222.2361 3428z" stroke="none" fill="white"/></mask><mask id="bottomSignalSolderMask" maskUnits="userSpaceOnUse" x="4091" y="3231.1" width="196.9" height="196.9"><path d="M4156.6182 3428,4091 3362.3818,4091 3296.7639,4156.6182 3231.1457,4222.2361 3231.1457,4287.8543 3296.7639,4287.8543 3362.3818,4222.2361 3428z" stroke="none" fill="white"/></mask></defs><g xmlns="http://www.w3.org/2000/svg" id="g1" class="photoview"><g id="layer_other" class="shapeBox"><path d="M4156.6182 3428,4091 3362.3818,4091 3296.7639,4156.6182 3231.1457,4222.2361 3231.1457,4287.8543 3296.7639,4287.8543 3362.3818,4222.2361 3428z" stroke="none" id="boardOutlineReal" fill="#80785F"/><path d="M4156.6182 3428,4091 3362.3818,4091 3296.7639,4156.6182 3231.1457,4222.2361 3231.1457,4287.8543 3296.7639,4287.8543 3362.3818,4222.2361 3428z" stroke="none" id="topBoardSolderReal" mask="url(#topBoardSolderMask)" fill="#002966"/><g id="topSignalReal" fill="#DCAA14" stroke="#DCAA14"><path d="M 4221.60245 3426.47 L 4157.25185 3426.47 M 4157.25185 3426.47 L 4092.53 3361.74815 M 4092.53 3361.74815 L 4092.53 3297.39755 M 4092.53 3297.39755 L 4157.25185 3232.6757 M 4157.25185 3232.6757 L 4221.60245 3232.6757 M 4221.60245 3232.6757 L 4286.3243 3297.39755 M 4286.3243 3297.39755 L 4286.3243 3361.74815 M 4286.3243 3361.74815 L 4221.60245 3426.47 M 4092.53 3361.64775 L 4157.35225 3426.47 M 4092.53 3357.40511 L 4161.59489 3426.47 M 4092.53 3353.16247 L 4165.83753 3426.47 M 4092.53 3348.91983 L 4170.08017 3426.47 M 4092.53 3344.67719 L 4174.32281 3426.47 M 4092.53 3340.43455 L 4178.56545 3426.47 M 4092.53 3336.1919 L 4182.8081 3426.47 M 4092.53 3331.94926 L 4187.05074 3426.47 M 4092.53 3327.70662 L 4191.29338 3426.47 M 4092.53 3323.46398 L 4195.53602 3426.47 M 4092.53 3319.22134 L 4199.77866 3426.47 M 4092.53 3314.9787 L 4204.0213 3426.47 M 4092.53 3310.73606 L 4208.26394 3426.47 M 4092.53 3306.49342 L 4212.50658 3426.47 M 4092.53 3302.25078 L 4216.74922 3426.47 M 4092.53 3298.00814 L 4220.99186 3426.47 M 4094.34602 3295.58152 L 4223.41848 3424.65398 M 4096.46734 3293.4602 L 4225.5398 3422.53266 M 4098.58867 3291.33888 L 4227.66112 3420.41133 M 4100.70999 3289.21756 L 4229.78244 3418.29001 M 4102.83131 3287.09624 L 4231.90376 3416.16869 M 4104.95263 3284.97492 L 4234.02508 3414.04737 M 4107.07395 3282.8536 L 4236.1464 3411.92605 M 4109.19527 3280.73228 L 4238.26772 3409.80473 M 4111.31659 3278.61096 L 4240.38904 3407.68341 M 4113.43791 3276.48964 L 4242.51036 3405.56209 M 4115.55923 3274.36832 L 4244.63168 3403.44077 M 4117.68055 3272.247 L 4246.753 3401.31945 M 4119.80187 3270.12568 L 4248.87432 3399.19813 M 4121.92319 3268.00436 L 4250.99564 3397.07681 M 4124.04451 3265.88304 L 4253.11696 3394.95549 M 4126.16583 3263.76172 L 4255.23828 3392.83417 M 4128.28715 3261.6404 L 4257.3596 3390.71285 M 4130.40847 3259.51908 L 4259.48092 3388.59153 M 4132.52979 3257.39776 L 4261.60224 3386.47021 M 4134.65111 3255.27644 L 4263.72356 3384.34889 M 4136.77243 3253.15512 L 4265.84488 3382.22757 M 4138.89375 3251.0338 L 4267.9662 3380.10625 M 4141.01507 3248.91247 L 4270.08753 3377.98493 M 4143.13639 3246.79115 L 4272.20885 3375.86361 M 4145.25771 3244.66983 L 4274.33017 3373.74229 M 4147.37903 3242.54851 L 4276.45149 3371.62097 M 4149.50035 3240.42719 L 4278.57281 3369.49965 M 4151.62167 3238.30587 L 4280.69413 3367.37833 M 4153.74299 3236.18455 L 4282.81545 3365.25701 M 4155.86431 3234.06323 L 4284.93677 3363.13569 M 4158.71942 3232.6757 L 4286.3243 3360.28058 M 4162.96206 3232.6757 L 4286.3243 3356.03794 M 4167.2047 3232.6757 L 4286.3243 3351.7953 M 4171.44734 3232.6757 L 4286.3243 3347.55266 M 4175.68999 3232.6757 L 4286.3243 3343.31001 M 4179.93263 3232.6757 L 4286.3243 3339.06737 M 4184.17527 3232.6757 L 4286.3243 3334.82473 M 4188.41791 3232.6757 L 4286.3243 3330.58209 M 4192.66055 3232.6757 L 4286.3243 3326.33945 M 4196.90319 3232.6757 L 4286.3243 3322.09681 M 4201.14583 3232.6757 L 4286.3243 3317.85417 M 4205.38847 3232.6757 L 4286.3243 3313.61153 M 4209.63111 3232.6757 L 4286.3243 3309.36889 M 4213.87375 3232.6757 L 4286.3243 3305.12625 M 4218.11639 3232.6757 L 4286.3243 3300.88361 M 4221.49815 3426.47 L 4286.3243 3361.64385 M 4217.25551 3426.47 L 4286.3243 3357.40121 M 4213.01287 3426.47 L 4286.3243 3353.15857 M 4208.77023 3426.47 L 4286.3243 3348.91593 M 4204.52759 3426.47 L 4286.3243 3344.67329 M 4200.28495 3426.47 L 4286.3243 3340.43065 M 4196.0423 3426.47 L 4286.3243 3336.188 M 4191.79966 3426.47 L 4286.3243 3331.94536 M 4187.55702 3426.47 L 4286.3243 3327.70272 M 4183.31438 3426.47 L 4286.3243 3323.46008 M 4179.07174 3426.47 L 4286.3243 3319.21744 M 4174.8291 3426.47 L 4286.3243 3314.9748 M 4170.58646 3426.47 L 4286.3243 3310.73216 M 4166.34382 3426.47 L 4286.3243 3306.48952 M 4162.10118 3426.47 L 4286.3243 3302.24688 M 4157.85854 3426.47 L 4286.3243 3298.00424 M 4155.43387 3424.65203 L 4284.50633 3295.57957 M 4153.31255 3422.53071 L 4282.38501 3293.45825 M 4151.19123 3420.40938 L 4280.26368 3291.33693 M 4149.06991 3418.28806 L 4278.14236 3289.21561 M 4146.94859 3416.16674 L 4276.02104 3287.09429 M 4144.82727 3414.04542 L 4273.89972 3284.97297 M 4142.70595 3411.9241 L 4271.7784 3282.85165 M 4140.58463 3409.80278 L 4269.65708 3280.73033 M 4138.46331 3407.68146 L 4267.53576 3278.60901 M 4136.34199 3405.56014 L 4265.41444 3276.48769 M 4134.22067 3403.43882 L 4263.29312 3274.36637 M 4132.09935 3401.3175 L 4261.1718 3272.24505 M 4129.97803 3399.19618 L 4259.05048 3270.12373 M 4127.85671 3397.07486 L 4256.92916 3268.00241 M 4125.73539 3394.95354 L 4254.80784 3265.88109 M 4123.61407 3392.83222 L 4252.68652 3263.75977 M 4121.49275 3390.7109 L 4250.5652 3261.63845 M 4119.37143 3388.58958 L 4248.44388 3259.51713 M 4117.25011 3386.46826 L 4246.32256 3257.39581 M 4115.12879 3384.34694 L 4244.20124 3255.27449 M 4113.00747 3382.22562 L 4242.07992 3253.15317 M 4110.88615 3380.1043 L 4239.9586 3251.03185 M 4108.76482 3377.98298 L 4237.83728 3248.91052 M 4106.6435 3375.86166 L 4235.71596 3246.7892 M 4104.52218 3373.74034 L 4233.59464 3244.66788 M 4102.40086 3371.61902 L 4231.47332 3242.54656 M 4100.27954 3369.4977 L 4229.352 3240.42524 M 4098.15822 3367.37638 L 4227.23068 3238.30392 M 4096.0369 3365.25506 L 4225.10936 3236.1826 M 4093.91558 3363.13374 L 4222.98804 3234.06128 M 4092.53 3360.27668 L 4220.13098 3232.6757 M 4092.53 3356.03404 L 4215.88834 3232.6757 M 4092.53 3351.7914 L 4211.6457 3232.6757 M 4092.53 3347.54876 L 4207.40306 3232.6757 M 4092.53 3343.30611 L 4203.16041 3232.6757 M 4092.53 3339.06347 L 4198.91777 3232.6757 M 4092.53 3334.82083 L 4194.67513 3232.6757 M 4092.53 3330.57819 L 4190.43249 3232.6757 M 4092.53 3326.33555 L 4186.18985 3232.6757 M 4092.53 3322.09291 L 4181.94721 3232.6757 M 4092.53 3317.85027 L 4177.70457 3232.6757 M 4092.53 3313.60763 L 4173.46193 3232.6757 M 4092.53 3309.36499 L 4169.21929 3232.6757 M 4092.53 3305.12235 L 4164.97665 3232.6757 M 4092.53 3300.87971 L 4160.73401 3232.6757 " stroke-width="1" fill="none" id="gge80_1"/></g><g id="topSignalSolderReal" mask="url(#topSignalSolderMask)" fill="#005CB6" stroke="#005CB6"><path d="M 4221.60245 3426.47 L 4157.25185 3426.47 M 4157.25185 3426.47 L 4092.53 3361.74815 M 4092.53 3361.74815 L 4092.53 3297.39755 M 4092.53 3297.39755 L 4157.25185 3232.6757 M 4157.25185 3232.6757 L 4221.60245 3232.6757 M 4221.60245 3232.6757 L 4286.3243 3297.39755 M 4286.3243 3297.39755 L 4286.3243 3361.74815 M 4286.3243 3361.74815 L 4221.60245 3426.47 M 4092.53 3361.64775 L 4157.35225 3426.47 M 4092.53 3357.40511 L 4161.59489 3426.47 M 4092.53 3353.16247 L 4165.83753 3426.47 M 4092.53 3348.91983 L 4170.08017 3426.47 M 4092.53 3344.67719 L 4174.32281 3426.47 M 4092.53 3340.43455 L 4178.56545 3426.47 M 4092.53 3336.1919 L 4182.8081 3426.47 M 4092.53 3331.94926 L 4187.05074 3426.47 M 4092.53 3327.70662 L 4191.29338 3426.47 M 4092.53 3323.46398 L 4195.53602 3426.47 M 4092.53 3319.22134 L 4199.77866 3426.47 M 4092.53 3314.9787 L 4204.0213 3426.47 M 4092.53 3310.73606 L 4208.26394 3426.47 M 4092.53 3306.49342 L 4212.50658 3426.47 M 4092.53 3302.25078 L 4216.74922 3426.47 M 4092.53 3298.00814 L 4220.99186 3426.47 M 4094.34602 3295.58152 L 4223.41848 3424.65398 M 4096.46734 3293.4602 L 4225.5398 3422.53266 M 4098.58867 3291.33888 L 4227.66112 3420.41133 M 4100.70999 3289.21756 L 4229.78244 3418.29001 M 4102.83131 3287.09624 L 4231.90376 3416.16869 M 4104.95263 3284.97492 L 4234.02508 3414.04737 M 4107.07395 3282.8536 L 4236.1464 3411.92605 M 4109.19527 3280.73228 L 4238.26772 3409.80473 M 4111.31659 3278.61096 L 4240.38904 3407.68341 M 4113.43791 3276.48964 L 4242.51036 3405.56209 M 4115.55923 3274.36832 L 4244.63168 3403.44077 M 4117.68055 3272.247 L 4246.753 3401.31945 M 4119.80187 3270.12568 L 4248.87432 3399.19813 M 4121.92319 3268.00436 L 4250.99564 3397.07681 M 4124.04451 3265.88304 L 4253.11696 3394.95549 M 4126.16583 3263.76172 L 4255.23828 3392.83417 M 4128.28715 3261.6404 L 4257.3596 3390.71285 M 4130.40847 3259.51908 L 4259.48092 3388.59153 M 4132.52979 3257.39776 L 4261.60224 3386.47021 M 4134.65111 3255.27644 L 4263.72356 3384.34889 M 4136.77243 3253.15512 L 4265.84488 3382.22757 M 4138.89375 3251.0338 L 4267.9662 3380.10625 M 4141.01507 3248.91247 L 4270.08753 3377.98493 M 4143.13639 3246.79115 L 4272.20885 3375.86361 M 4145.25771 3244.66983 L 4274.33017 3373.74229 M 4147.37903 3242.54851 L 4276.45149 3371.62097 M 4149.50035 3240.42719 L 4278.57281 3369.49965 M 4151.62167 3238.30587 L 4280.69413 3367.37833 M 4153.74299 3236.18455 L 4282.81545 3365.25701 M 4155.86431 3234.06323 L 4284.93677 3363.13569 M 4158.71942 3232.6757 L 4286.3243 3360.28058 M 4162.96206 3232.6757 L 4286.3243 3356.03794 M 4167.2047 3232.6757 L 4286.3243 3351.7953 M 4171.44734 3232.6757 L 4286.3243 3347.55266 M 4175.68999 3232.6757 L 4286.3243 3343.31001 M 4179.93263 3232.6757 L 4286.3243 3339.06737 M 4184.17527 3232.6757 L 4286.3243 3334.82473 M 4188.41791 3232.6757 L 4286.3243 3330.58209 M 4192.66055 3232.6757 L 4286.3243 3326.33945 M 4196.90319 3232.6757 L 4286.3243 3322.09681 M 4201.14583 3232.6757 L 4286.3243 3317.85417 M 4205.38847 3232.6757 L 4286.3243 3313.61153 M 4209.63111 3232.6757 L 4286.3243 3309.36889 M 4213.87375 3232.6757 L 4286.3243 3305.12625 M 4218.11639 3232.6757 L 4286.3243 3300.88361 M 4221.49815 3426.47 L 4286.3243 3361.64385 M 4217.25551 3426.47 L 4286.3243 3357.40121 M 4213.01287 3426.47 L 4286.3243 3353.15857 M 4208.77023 3426.47 L 4286.3243 3348.91593 M 4204.52759 3426.47 L 4286.3243 3344.67329 M 4200.28495 3426.47 L 4286.3243 3340.43065 M 4196.0423 3426.47 L 4286.3243 3336.188 M 4191.79966 3426.47 L 4286.3243 3331.94536 M 4187.55702 3426.47 L 4286.3243 3327.70272 M 4183.31438 3426.47 L 4286.3243 3323.46008 M 4179.07174 3426.47 L 4286.3243 3319.21744 M 4174.8291 3426.47 L 4286.3243 3314.9748 M 4170.58646 3426.47 L 4286.3243 3310.73216 M 4166.34382 3426.47 L 4286.3243 3306.48952 M 4162.10118 3426.47 L 4286.3243 3302.24688 M 4157.85854 3426.47 L 4286.3243 3298.00424 M 4155.43387 3424.65203 L 4284.50633 3295.57957 M 4153.31255 3422.53071 L 4282.38501 3293.45825 M 4151.19123 3420.40938 L 4280.26368 3291.33693 M 4149.06991 3418.28806 L 4278.14236 3289.21561 M 4146.94859 3416.16674 L 4276.02104 3287.09429 M 4144.82727 3414.04542 L 4273.89972 3284.97297 M 4142.70595 3411.9241 L 4271.7784 3282.85165 M 4140.58463 3409.80278 L 4269.65708 3280.73033 M 4138.46331 3407.68146 L 4267.53576 3278.60901 M 4136.34199 3405.56014 L 4265.41444 3276.48769 M 4134.22067 3403.43882 L 4263.29312 3274.36637 M 4132.09935 3401.3175 L 4261.1718 3272.24505 M 4129.97803 3399.19618 L 4259.05048 3270.12373 M 4127.85671 3397.07486 L 4256.92916 3268.00241 M 4125.73539 3394.95354 L 4254.80784 3265.88109 M 4123.61407 3392.83222 L 4252.68652 3263.75977 M 4121.49275 3390.7109 L 4250.5652 3261.63845 M 4119.37143 3388.58958 L 4248.44388 3259.51713 M 4117.25011 3386.46826 L 4246.32256 3257.39581 M 4115.12879 3384.34694 L 4244.20124 3255.27449 M 4113.00747 3382.22562 L 4242.07992 3253.15317 M 4110.88615 3380.1043 L 4239.9586 3251.03185 M 4108.76482 3377.98298 L 4237.83728 3248.91052 M 4106.6435 3375.86166 L 4235.71596 3246.7892 M 4104.52218 3373.74034 L 4233.59464 3244.66788 M 4102.40086 3371.61902 L 4231.47332 3242.54656 M 4100.27954 3369.4977 L 4229.352 3240.42524 M 4098.15822 3367.37638 L 4227.23068 3238.30392 M 4096.0369 3365.25506 L 4225.10936 3236.1826 M 4093.91558 3363.13374 L 4222.98804 3234.06128 M 4092.53 3360.27668 L 4220.13098 3232.6757 M 4092.53 3356.03404 L 4215.88834 3232.6757 M 4092.53 3351.7914 L 4211.6457 3232.6757 M 4092.53 3347.54876 L 4207.40306 3232.6757 M 4092.53 3343.30611 L 4203.16041 3232.6757 M 4092.53 3339.06347 L 4198.91777 3232.6757 M 4092.53 3334.82083 L 4194.67513 3232.6757 M 4092.53 3330.57819 L 4190.43249 3232.6757 M 4092.53 3326.33555 L 4186.18985 3232.6757 M 4092.53 3322.09291 L 4181.94721 3232.6757 M 4092.53 3317.85027 L 4177.70457 3232.6757 M 4092.53 3313.60763 L 4173.46193 3232.6757 M 4092.53 3309.36499 L 4169.21929 3232.6757 M 4092.53 3305.12235 L 4164.97665 3232.6757 M 4092.53 3300.87971 L 4160.73401 3232.6757 " stroke-width="1" fill="none" id="gge80_1"/></g><path d="M4156.6182 3428,4091 3362.3818,4091 3296.7639,4156.6182 3231.1457,4222.2361 3231.1457,4287.8543 3296.7639,4287.8543 3362.3818,4222.2361 3428z" stroke="none" id="bottomBoardSolderReal" mask="url(#bottomBoardSolderMask)" fill="#002966" display="none"/><g id="bottomSignalReal" fill="#DCAA14" stroke="#DCAA14" display="none"><path d="M 4157.20628 3426.98 L 4157.05321 3426.94955 4156.92344 3426.86284 4092.13716 3362.07656 4092.05045 3361.94679 4092.02 3361.79372 4092.02 3297.35198 4092.05045 3297.19891 4092.13716 3297.06914 4156.92344 3232.28286 4157.05321 3232.19615 4157.20628 3232.1657 4221.64802 3232.1657 4221.80109 3232.19615 4221.93086 3232.28286 4286.71714 3297.06914 4286.80385 3297.19891 4286.8343 3297.35198 4286.8343 3361.79372 4286.80385 3361.94679 4286.71714 3362.07656 4221.93086 3426.86284 4221.80109 3426.94955 4221.64802 3426.98 4157.20628 3426.98 Z " stroke-width="0" id="gge71_2"/></g><g id="bottomSignalSolderReal" mask="url(#bottomSignalSolderMask)" fill="#005CB6" stroke="#005CB6" display="none"><path d="M 4157.20628 3426.98 L 4157.05321 3426.94955 4156.92344 3426.86284 4092.13716 3362.07656 4092.05045 3361.94679 4092.02 3361.79372 4092.02 3297.35198 4092.05045 3297.19891 4092.13716 3297.06914 4156.92344 3232.28286 4157.05321 3232.19615 4157.20628 3232.1657 4221.64802 3232.1657 4221.80109 3232.19615 4221.93086 3232.28286 4286.71714 3297.06914 4286.80385 3297.19891 4286.8343 3297.35198 4286.8343 3361.79372 4286.80385 3361.94679 4286.71714 3362.07656 4221.93086 3426.86284 4221.80109 3426.94955 4221.64802 3426.98 4157.20628 3426.98 Z " stroke-width="0" id="gge71_2"/></g></g></g></svg>