<?xml version="1.0" encoding="utf-8" standalone="no"?><svg xmlns="http://www.w3.org/2000/svg" xmlns:xlink="http://www.w3.org/1999/xlink" width="55.09271018542038mm" height="55.09271018542038mm" viewBox="4081 3221.1 216.9 216.9"><title>Photo View</title><rect x="4081" y="3221.1" width="216.9" height="216.9" fill="#000000" stroke="none"/><defs xmlns="http://www.w3.org/2000/svg" id="patterns"><pattern id="gridPattern" x="4000" y="3000" width="10" height="10" patternUnits="userSpaceOnUse"><rect id="gridCell" x="0" y="0" width="0.50001" height="0.50001" fill="#FFFFFF" stroke="none"/></pattern><pattern id="gridPattern2" x="4000.50001" y="3000.50001" width="10" height="10" patternUnits="userSpaceOnUse"><path id="gridCell2" d="M10 0V10H-10" fill="none" stroke="#FFFFFF" stroke-width="0.50001" stroke-opacity="0.6"/></pattern><marker id="arrowOnStart" orient="auto" refY="0" refX="0" style="overflow:visible" markerUnits="strokeWidth"><path d="M 2,0 l 4,-2, 0,4 z" stroke-width="6"/></marker><marker id="arrowOnEnd" orient="auto" refY="0" refX="0" style="overflow:visible" markerUnits="strokeWidth"><path d="M -2,0 l -4,-2, 0,4 z" stroke-width="6"/></marker><marker id="arrowOnStartChrome" orient="auto" refY="0" refX="0" style="overflow:visible" markerUnits="strokeWidth"><path d="M 2,0 l 4,-2, 0,4 z" stroke-width="3" stroke="#FFFFFF"/></marker><marker id="arrowOnEndChrome" orient="auto" refY="0" refX="0" style="overflow:visible" markerUnits="strokeWidth"><path d="M -2,0 l -4,-2, 0,4 z" stroke-width="3" stroke="#FFFFFF"/></marker><svg id="icon-lock" title="Unlock" viewBox="0 0 20 20" height="20" width="20"><path stroke="#F0F" stroke-width="2" style="cursor:pointer;fill-opacity:.001;fill:#fff" d="M 5 7 C 5 -1 15 -1 15 7L1 7 1 19 19 19 19 7 15 7"/></svg><mask id="topBoardSolderMask" maskUnits="userSpaceOnUse" x="4091" y="3231.1" width="196.9" height="196.9"><path d="M4156.6182 3428,4091 3362.3818,4091 3296.7639,4156.6182 3231.1457,4222.2361 3231.1457,4287.8543 3296.7639,4287.8543 3362.3818,4222.2361 3428z" stroke="none" fill="white"/><g fill="black"><path d="M4156.5904 3231.4255500000004A0.19685 0.19685 0 0 1 4156.5904 3231.03185L4222.2085 3231.03185A0.19685 0.19685 0 0 1 4222.2085 3231.4255500000004z" stroke-width="0"/><path d="M4222.069306348315 3231.367894288068A0.19685 0.19685 0 0 1 4222.3476936516845 3231.0895057119324L4287.965893651684 3296.707405711932A0.19685 0.19685 0 0 1 4287.687506348315 3296.9857942880676z" stroke-width="0"/><path d="M4287.629849999999 3296.8466A0.19685 0.19685 0 0 1 4288.02355 3296.8466L4288.02355 3362.4647A0.19685 0.19685 0 0 1 4287.629849999999 3362.4647z" stroke-width="0"/><path d="M4287.687506030123 3362.325506030123A0.19685 0.19685 0 0 1 4287.965893969877 3362.603893969877L4222.347693969877 3428.222093969877A0.19685 0.19685 0 0 1 4222.069306030123 3427.943706030123z" stroke-width="0"/><path d="M4222.2085 3427.8860499999996A0.19685 0.19685 0 0 1 4222.2085 3428.27975L4156.5904 3428.27975A0.19685 0.19685 0 0 1 4156.5904 3427.8860499999996z" stroke-width="0"/><path d="M4156.729594500195 3427.943706560444A0.19685 0.19685 0 0 1 4156.451205499805 3428.222093439556L4090.8335054998047 3362.6038934395556A0.19685 0.19685 0 0 1 4091.111894500195 3362.3255065604444z" stroke-width="0"/><path d="M4091.1695499999996 3362.4647A0.19685 0.19685 0 0 1 4090.77585 3362.4647L4090.77585 3296.8466A0.19685 0.19685 0 0 1 4091.1695499999996 3296.8466z" stroke-width="0"/><path d="M4091.1118941820046 3296.9857937577476A0.19685 0.19685 0 0 1 4090.833505817995 3296.707406242252L4156.451205817995 3231.089506242252A0.19685 0.19685 0 0 1 4156.729594182005 3231.3678937577483z" stroke-width="0"/></g></mask><mask id="topSignalSolderMask" maskUnits="userSpaceOnUse" x="4091" y="3231.1" width="196.9" height="196.9"><path d="M4156.6182 3428,4091 3362.3818,4091 3296.7639,4156.6182 3231.1457,4222.2361 3231.1457,4287.8543 3296.7639,4287.8543 3362.3818,4222.2361 3428z" stroke="none" fill="white"/><g fill="black"><path d="M4156.5904 3231.4255500000004A0.19685 0.19685 0 0 1 4156.5904 3231.03185L4222.2085 3231.03185A0.19685 0.19685 0 0 1 4222.2085 3231.4255500000004z" stroke-width="0"/><path d="M4222.069306348315 3231.367894288068A0.19685 0.19685 0 0 1 4222.3476936516845 3231.0895057119324L4287.965893651684 3296.707405711932A0.19685 0.19685 0 0 1 4287.687506348315 3296.9857942880676z" stroke-width="0"/><path d="M4287.629849999999 3296.8466A0.19685 0.19685 0 0 1 4288.02355 3296.8466L4288.02355 3362.4647A0.19685 0.19685 0 0 1 4287.629849999999 3362.4647z" stroke-width="0"/><path d="M4287.687506030123 3362.325506030123A0.19685 0.19685 0 0 1 4287.965893969877 3362.603893969877L4222.347693969877 3428.222093969877A0.19685 0.19685 0 0 1 4222.069306030123 3427.943706030123z" stroke-width="0"/><path d="M4222.2085 3427.8860499999996A0.19685 0.19685 0 0 1 4222.2085 3428.27975L4156.5904 3428.27975A0.19685 0.19685 0 0 1 4156.5904 3427.8860499999996z" stroke-width="0"/><path d="M4156.729594500195 3427.943706560444A0.19685 0.19685 0 0 1 4156.451205499805 3428.222093439556L4090.8335054998047 3362.6038934395556A0.19685 0.19685 0 0 1 4091.111894500195 3362.3255065604444z" stroke-width="0"/><path d="M4091.1695499999996 3362.4647A0.19685 0.19685 0 0 1 4090.77585 3362.4647L4090.77585 3296.8466A0.19685 0.19685 0 0 1 4091.1695499999996 3296.8466z" stroke-width="0"/><path d="M4091.1118941820046 3296.9857937577476A0.19685 0.19685 0 0 1 4090.833505817995 3296.707406242252L4156.451205817995 3231.089506242252A0.19685 0.19685 0 0 1 4156.729594182005 3231.3678937577483z" stroke-width="0"/></g></mask><mask id="bottomBoardSolderMask" maskUnits="userSpaceOnUse" x="4091" y="3231.1" width="196.9" height="196.9"><path d="M4156.6182 3428,4091 3362.3818,4091 3296.7639,4156.6182 3231.1457,4222.2361 3231.1457,4287.8543 3296.7639,4287.8543 3362.3818,4222.2361 3428z" stroke="none" fill="white"/><g fill="black"><path d="M4156.5904 3231.4255500000004A0.19685 0.19685 0 0 1 4156.5904 3231.03185L4222.2085 3231.03185A0.19685 0.19685 0 0 1 4222.2085 3231.4255500000004z" stroke-width="0"/><path d="M4222.069305817995 3231.3678937577483A0.19685 0.19685 0 0 1 4222.3476941820045 3231.089506242252L4287.965394182005 3296.7074062422516A0.19685 0.19685 0 0 1 4287.687005817996 3296.985793757748z" stroke-width="0"/><path d="M4287.62935 3296.8466A0.19685 0.19685 0 0 1 4288.023050000001 3296.8466L4288.023050000001 3362.4645A0.19685 0.19685 0 0 1 4287.62935 3362.4645z" stroke-width="0"/><path d="M4287.687005287679 3362.325306772572A0.19685 0.19685 0 0 1 4287.9653947123215 3362.6036932274283L4222.347694712321 3428.222093227428A0.19685 0.19685 0 0 1 4222.069305287679 3427.9437067725717z" stroke-width="0"/><path d="M4222.2085 3427.8860499999996A0.19685 0.19685 0 0 1 4222.2085 3428.27975L4156.5904 3428.27975A0.19685 0.19685 0 0 1 4156.5904 3427.8860499999996z" stroke-width="0"/><path d="M4156.729594182003 3427.94370624225A0.19685 0.19685 0 0 1 4156.451205817997 3428.22209375775L4090.833005817997 3362.6036937577496A0.19685 0.19685 0 0 1 4091.111394182003 3362.3253062422505z" stroke-width="0"/><path d="M4091.16905 3362.4645A0.19685 0.19685 0 0 1 4090.7753500000003 3362.4645L4090.7753500000003 3296.8466A0.19685 0.19685 0 0 1 4091.16905 3296.8466z" stroke-width="0"/><path d="M4091.111393651685 3296.985794288067A0.19685 0.19685 0 0 1 4090.8330063483154 3296.7074057119326L4156.451206348315 3231.0895057119324A0.19685 0.19685 0 0 1 4156.729593651685 3231.367894288068z" stroke-width="0"/></g></mask><mask id="bottomSignalSolderMask" maskUnits="userSpaceOnUse" x="4091" y="3231.1" width="196.9" height="196.9"><path d="M4156.6182 3428,4091 3362.3818,4091 3296.7639,4156.6182 3231.1457,4222.2361 3231.1457,4287.8543 3296.7639,4287.8543 3362.3818,4222.2361 3428z" stroke="none" fill="white"/><g fill="black"><path d="M4156.5904 3231.4255500000004A0.19685 0.19685 0 0 1 4156.5904 3231.03185L4222.2085 3231.03185A0.19685 0.19685 0 0 1 4222.2085 3231.4255500000004z" stroke-width="0"/><path d="M4222.069305817995 3231.3678937577483A0.19685 0.19685 0 0 1 4222.3476941820045 3231.089506242252L4287.965394182005 3296.7074062422516A0.19685 0.19685 0 0 1 4287.687005817996 3296.985793757748z" stroke-width="0"/><path d="M4287.62935 3296.8466A0.19685 0.19685 0 0 1 4288.023050000001 3296.8466L4288.023050000001 3362.4645A0.19685 0.19685 0 0 1 4287.62935 3362.4645z" stroke-width="0"/><path d="M4287.687005287679 3362.325306772572A0.19685 0.19685 0 0 1 4287.9653947123215 3362.6036932274283L4222.347694712321 3428.222093227428A0.19685 0.19685 0 0 1 4222.069305287679 3427.9437067725717z" stroke-width="0"/><path d="M4222.2085 3427.8860499999996A0.19685 0.19685 0 0 1 4222.2085 3428.27975L4156.5904 3428.27975A0.19685 0.19685 0 0 1 4156.5904 3427.8860499999996z" stroke-width="0"/><path d="M4156.729594182003 3427.94370624225A0.19685 0.19685 0 0 1 4156.451205817997 3428.22209375775L4090.833005817997 3362.6036937577496A0.19685 0.19685 0 0 1 4091.111394182003 3362.3253062422505z" stroke-width="0"/><path d="M4091.16905 3362.4645A0.19685 0.19685 0 0 1 4090.7753500000003 3362.4645L4090.7753500000003 3296.8466A0.19685 0.19685 0 0 1 4091.16905 3296.8466z" stroke-width="0"/><path d="M4091.111393651685 3296.985794288067A0.19685 0.19685 0 0 1 4090.8330063483154 3296.7074057119326L4156.451206348315 3231.0895057119324A0.19685 0.19685 0 0 1 4156.729593651685 3231.367894288068z" stroke-width="0"/></g></mask></defs><g xmlns="http://www.w3.org/2000/svg" id="g1" class="photoview" transform="matrix(-1, 0, 0, 1, 8378.8544921875, 0)"><g id="layer_other" class="shapeBox"><path d="M4156.6182 3428,4091 3362.3818,4091 3296.7639,4156.6182 3231.1457,4222.2361 3231.1457,4287.8543 3296.7639,4287.8543 3362.3818,4222.2361 3428z" stroke="none" id="boardOutlineReal" fill="#80785F"/><path d="M4156.6182 3428,4091 3362.3818,4091 3296.7639,4156.6182 3231.1457,4222.2361 3231.1457,4287.8543 3296.7639,4287.8543 3362.3818,4222.2361 3428z" stroke="none" id="topBoardSolderReal" mask="url(#topBoardSolderMask)" fill="#002966" display="none"/><g id="topSignalReal" fill="#DCAA14" stroke="#DCAA14" display="none"><path d="M 4221.60245 3426.47 L 4157.25185 3426.47 M 4157.25185 3426.47 L 4092.53 3361.74815 M 4092.53 3361.74815 L 4092.53 3297.39755 M 4092.53 3297.39755 L 4157.25185 3232.6757 M 4157.25185 3232.6757 L 4221.60245 3232.6757 M 4221.60245 3232.6757 L 4286.3243 3297.39755 M 4286.3243 3297.39755 L 4286.3243 3361.74815 M 4286.3243 3361.74815 L 4221.60245 3426.47 M 4092.53 3361.64775 L 4157.35225 3426.47 M 4092.53 3357.40511 L 4161.59489 3426.47 M 4092.53 3353.16247 L 4165.83753 3426.47 M 4092.53 3348.91983 L 4170.08017 3426.47 M 4092.53 3344.67719 L 4174.32281 3426.47 M 4092.53 3340.43455 L 4178.56545 3426.47 M 4092.53 3336.1919 L 4182.8081 3426.47 M 4092.53 3331.94926 L 4187.05074 3426.47 M 4092.53 3327.70662 L 4191.29338 3426.47 M 4092.53 3323.46398 L 4195.53602 3426.47 M 4092.53 3319.22134 L 4199.77866 3426.47 M 4092.53 3314.9787 L 4204.0213 3426.47 M 4092.53 3310.73606 L 4208.26394 3426.47 M 4092.53 3306.49342 L 4212.50658 3426.47 M 4092.53 3302.25078 L 4216.74922 3426.47 M 4092.53 3298.00814 L 4220.99186 3426.47 M 4094.34602 3295.58152 L 4223.41848 3424.65398 M 4096.46734 3293.4602 L 4225.5398 3422.53266 M 4098.58867 3291.33888 L 4227.66112 3420.41133 M 4100.70999 3289.21756 L 4229.78244 3418.29001 M 4102.83131 3287.09624 L 4231.90376 3416.16869 M 4104.95263 3284.97492 L 4234.02508 3414.04737 M 4107.07395 3282.8536 L 4236.1464 3411.92605 M 4109.19527 3280.73228 L 4238.26772 3409.80473 M 4111.31659 3278.61096 L 4240.38904 3407.68341 M 4113.43791 3276.48964 L 4242.51036 3405.56209 M 4115.55923 3274.36832 L 4244.63168 3403.44077 M 4117.68055 3272.247 L 4246.753 3401.31945 M 4119.80187 3270.12568 L 4248.87432 3399.19813 M 4121.92319 3268.00436 L 4250.99564 3397.07681 M 4124.04451 3265.88304 L 4253.11696 3394.95549 M 4126.16583 3263.76172 L 4255.23828 3392.83417 M 4128.28715 3261.6404 L 4257.3596 3390.71285 M 4130.40847 3259.51908 L 4259.48092 3388.59153 M 4132.52979 3257.39776 L 4261.60224 3386.47021 M 4134.65111 3255.27644 L 4263.72356 3384.34889 M 4136.77243 3253.15512 L 4265.84488 3382.22757 M 4138.89375 3251.0338 L 4267.9662 3380.10625 M 4141.01507 3248.91247 L 4270.08753 3377.98493 M 4143.13639 3246.79115 L 4272.20885 3375.86361 M 4145.25771 3244.66983 L 4274.33017 3373.74229 M 4147.37903 3242.54851 L 4276.45149 3371.62097 M 4149.50035 3240.42719 L 4278.57281 3369.49965 M 4151.62167 3238.30587 L 4280.69413 3367.37833 M 4153.74299 3236.18455 L 4282.81545 3365.25701 M 4155.86431 3234.06323 L 4284.93677 3363.13569 M 4158.71942 3232.6757 L 4286.3243 3360.28058 M 4162.96206 3232.6757 L 4286.3243 3356.03794 M 4167.2047 3232.6757 L 4286.3243 3351.7953 M 4171.44734 3232.6757 L 4286.3243 3347.55266 M 4175.68999 3232.6757 L 4286.3243 3343.31001 M 4179.93263 3232.6757 L 4286.3243 3339.06737 M 4184.17527 3232.6757 L 4286.3243 3334.82473 M 4188.41791 3232.6757 L 4286.3243 3330.58209 M 4192.66055 3232.6757 L 4286.3243 3326.33945 M 4196.90319 3232.6757 L 4286.3243 3322.09681 M 4201.14583 3232.6757 L 4286.3243 3317.85417 M 4205.38847 3232.6757 L 4286.3243 3313.61153 M 4209.63111 3232.6757 L 4286.3243 3309.36889 M 4213.87375 3232.6757 L 4286.3243 3305.12625 M 4218.11639 3232.6757 L 4286.3243 3300.88361 M 4221.49815 3426.47 L 4286.3243 3361.64385 M 4217.25551 3426.47 L 4286.3243 3357.40121 M 4213.01287 3426.47 L 4286.3243 3353.15857 M 4208.77023 3426.47 L 4286.3243 3348.91593 M 4204.52759 3426.47 L 4286.3243 3344.67329 M 4200.28495 3426.47 L 4286.3243 3340.43065 M 4196.0423 3426.47 L 4286.3243 3336.188 M 4191.79966 3426.47 L 4286.3243 3331.94536 M 4187.55702 3426.47 L 4286.3243 3327.70272 M 4183.31438 3426.47 L 4286.3243 3323.46008 M 4179.07174 3426.47 L 4286.3243 3319.21744 M 4174.8291 3426.47 L 4286.3243 3314.9748 M 4170.58646 3426.47 L 4286.3243 3310.73216 M 4166.34382 3426.47 L 4286.3243 3306.48952 M 4162.10118 3426.47 L 4286.3243 3302.24688 M 4157.85854 3426.47 L 4286.3243 3298.00424 M 4155.43387 3424.65203 L 4284.50633 3295.57957 M 4153.31255 3422.53071 L 4282.38501 3293.45825 M 4151.19123 3420.40938 L 4280.26368 3291.33693 M 4149.06991 3418.28806 L 4278.14236 3289.21561 M 4146.94859 3416.16674 L 4276.02104 3287.09429 M 4144.82727 3414.04542 L 4273.89972 3284.97297 M 4142.70595 3411.9241 L 4271.7784 3282.85165 M 4140.58463 3409.80278 L 4269.65708 3280.73033 M 4138.46331 3407.68146 L 4267.53576 3278.60901 M 4136.34199 3405.56014 L 4265.41444 3276.48769 M 4134.22067 3403.43882 L 4263.29312 3274.36637 M 4132.09935 3401.3175 L 4261.1718 3272.24505 M 4129.97803 3399.19618 L 4259.05048 3270.12373 M 4127.85671 3397.07486 L 4256.92916 3268.00241 M 4125.73539 3394.95354 L 4254.80784 3265.88109 M 4123.61407 3392.83222 L 4252.68652 3263.75977 M 4121.49275 3390.7109 L 4250.5652 3261.63845 M 4119.37143 3388.58958 L 4248.44388 3259.51713 M 4117.25011 3386.46826 L 4246.32256 3257.39581 M 4115.12879 3384.34694 L 4244.20124 3255.27449 M 4113.00747 3382.22562 L 4242.07992 3253.15317 M 4110.88615 3380.1043 L 4239.9586 3251.03185 M 4108.76482 3377.98298 L 4237.83728 3248.91052 M 4106.6435 3375.86166 L 4235.71596 3246.7892 M 4104.52218 3373.74034 L 4233.59464 3244.66788 M 4102.40086 3371.61902 L 4231.47332 3242.54656 M 4100.27954 3369.4977 L 4229.352 3240.42524 M 4098.15822 3367.37638 L 4227.23068 3238.30392 M 4096.0369 3365.25506 L 4225.10936 3236.1826 M 4093.91558 3363.13374 L 4222.98804 3234.06128 M 4092.53 3360.27668 L 4220.13098 3232.6757 M 4092.53 3356.03404 L 4215.88834 3232.6757 M 4092.53 3351.7914 L 4211.6457 3232.6757 M 4092.53 3347.54876 L 4207.40306 3232.6757 M 4092.53 3343.30611 L 4203.16041 3232.6757 M 4092.53 3339.06347 L 4198.91777 3232.6757 M 4092.53 3334.82083 L 4194.67513 3232.6757 M 4092.53 3330.57819 L 4190.43249 3232.6757 M 4092.53 3326.33555 L 4186.18985 3232.6757 M 4092.53 3322.09291 L 4181.94721 3232.6757 M 4092.53 3317.85027 L 4177.70457 3232.6757 M 4092.53 3313.60763 L 4173.46193 3232.6757 M 4092.53 3309.36499 L 4169.21929 3232.6757 M 4092.53 3305.12235 L 4164.97665 3232.6757 M 4092.53 3300.87971 L 4160.73401 3232.6757 " stroke-width="1" fill="none" id="gge80_1"/></g><g id="topSignalSolderReal" mask="url(#topSignalSolderMask)" fill="#005CB6" stroke="#005CB6" display="none"><path d="M 4221.60245 3426.47 L 4157.25185 3426.47 M 4157.25185 3426.47 L 4092.53 3361.74815 M 4092.53 3361.74815 L 4092.53 3297.39755 M 4092.53 3297.39755 L 4157.25185 3232.6757 M 4157.25185 3232.6757 L 4221.60245 3232.6757 M 4221.60245 3232.6757 L 4286.3243 3297.39755 M 4286.3243 3297.39755 L 4286.3243 3361.74815 M 4286.3243 3361.74815 L 4221.60245 3426.47 M 4092.53 3361.64775 L 4157.35225 3426.47 M 4092.53 3357.40511 L 4161.59489 3426.47 M 4092.53 3353.16247 L 4165.83753 3426.47 M 4092.53 3348.91983 L 4170.08017 3426.47 M 4092.53 3344.67719 L 4174.32281 3426.47 M 4092.53 3340.43455 L 4178.56545 3426.47 M 4092.53 3336.1919 L 4182.8081 3426.47 M 4092.53 3331.94926 L 4187.05074 3426.47 M 4092.53 3327.70662 L 4191.29338 3426.47 M 4092.53 3323.46398 L 4195.53602 3426.47 M 4092.53 3319.22134 L 4199.77866 3426.47 M 4092.53 3314.9787 L 4204.0213 3426.47 M 4092.53 3310.73606 L 4208.26394 3426.47 M 4092.53 3306.49342 L 4212.50658 3426.47 M 4092.53 3302.25078 L 4216.74922 3426.47 M 4092.53 3298.00814 L 4220.99186 3426.47 M 4094.34602 3295.58152 L 4223.41848 3424.65398 M 4096.46734 3293.4602 L 4225.5398 3422.53266 M 4098.58867 3291.33888 L 4227.66112 3420.41133 M 4100.70999 3289.21756 L 4229.78244 3418.29001 M 4102.83131 3287.09624 L 4231.90376 3416.16869 M 4104.95263 3284.97492 L 4234.02508 3414.04737 M 4107.07395 3282.8536 L 4236.1464 3411.92605 M 4109.19527 3280.73228 L 4238.26772 3409.80473 M 4111.31659 3278.61096 L 4240.38904 3407.68341 M 4113.43791 3276.48964 L 4242.51036 3405.56209 M 4115.55923 3274.36832 L 4244.63168 3403.44077 M 4117.68055 3272.247 L 4246.753 3401.31945 M 4119.80187 3270.12568 L 4248.87432 3399.19813 M 4121.92319 3268.00436 L 4250.99564 3397.07681 M 4124.04451 3265.88304 L 4253.11696 3394.95549 M 4126.16583 3263.76172 L 4255.23828 3392.83417 M 4128.28715 3261.6404 L 4257.3596 3390.71285 M 4130.40847 3259.51908 L 4259.48092 3388.59153 M 4132.52979 3257.39776 L 4261.60224 3386.47021 M 4134.65111 3255.27644 L 4263.72356 3384.34889 M 4136.77243 3253.15512 L 4265.84488 3382.22757 M 4138.89375 3251.0338 L 4267.9662 3380.10625 M 4141.01507 3248.91247 L 4270.08753 3377.98493 M 4143.13639 3246.79115 L 4272.20885 3375.86361 M 4145.25771 3244.66983 L 4274.33017 3373.74229 M 4147.37903 3242.54851 L 4276.45149 3371.62097 M 4149.50035 3240.42719 L 4278.57281 3369.49965 M 4151.62167 3238.30587 L 4280.69413 3367.37833 M 4153.74299 3236.18455 L 4282.81545 3365.25701 M 4155.86431 3234.06323 L 4284.93677 3363.13569 M 4158.71942 3232.6757 L 4286.3243 3360.28058 M 4162.96206 3232.6757 L 4286.3243 3356.03794 M 4167.2047 3232.6757 L 4286.3243 3351.7953 M 4171.44734 3232.6757 L 4286.3243 3347.55266 M 4175.68999 3232.6757 L 4286.3243 3343.31001 M 4179.93263 3232.6757 L 4286.3243 3339.06737 M 4184.17527 3232.6757 L 4286.3243 3334.82473 M 4188.41791 3232.6757 L 4286.3243 3330.58209 M 4192.66055 3232.6757 L 4286.3243 3326.33945 M 4196.90319 3232.6757 L 4286.3243 3322.09681 M 4201.14583 3232.6757 L 4286.3243 3317.85417 M 4205.38847 3232.6757 L 4286.3243 3313.61153 M 4209.63111 3232.6757 L 4286.3243 3309.36889 M 4213.87375 3232.6757 L 4286.3243 3305.12625 M 4218.11639 3232.6757 L 4286.3243 3300.88361 M 4221.49815 3426.47 L 4286.3243 3361.64385 M 4217.25551 3426.47 L 4286.3243 3357.40121 M 4213.01287 3426.47 L 4286.3243 3353.15857 M 4208.77023 3426.47 L 4286.3243 3348.91593 M 4204.52759 3426.47 L 4286.3243 3344.67329 M 4200.28495 3426.47 L 4286.3243 3340.43065 M 4196.0423 3426.47 L 4286.3243 3336.188 M 4191.79966 3426.47 L 4286.3243 3331.94536 M 4187.55702 3426.47 L 4286.3243 3327.70272 M 4183.31438 3426.47 L 4286.3243 3323.46008 M 4179.07174 3426.47 L 4286.3243 3319.21744 M 4174.8291 3426.47 L 4286.3243 3314.9748 M 4170.58646 3426.47 L 4286.3243 3310.73216 M 4166.34382 3426.47 L 4286.3243 3306.48952 M 4162.10118 3426.47 L 4286.3243 3302.24688 M 4157.85854 3426.47 L 4286.3243 3298.00424 M 4155.43387 3424.65203 L 4284.50633 3295.57957 M 4153.31255 3422.53071 L 4282.38501 3293.45825 M 4151.19123 3420.40938 L 4280.26368 3291.33693 M 4149.06991 3418.28806 L 4278.14236 3289.21561 M 4146.94859 3416.16674 L 4276.02104 3287.09429 M 4144.82727 3414.04542 L 4273.89972 3284.97297 M 4142.70595 3411.9241 L 4271.7784 3282.85165 M 4140.58463 3409.80278 L 4269.65708 3280.73033 M 4138.46331 3407.68146 L 4267.53576 3278.60901 M 4136.34199 3405.56014 L 4265.41444 3276.48769 M 4134.22067 3403.43882 L 4263.29312 3274.36637 M 4132.09935 3401.3175 L 4261.1718 3272.24505 M 4129.97803 3399.19618 L 4259.05048 3270.12373 M 4127.85671 3397.07486 L 4256.92916 3268.00241 M 4125.73539 3394.95354 L 4254.80784 3265.88109 M 4123.61407 3392.83222 L 4252.68652 3263.75977 M 4121.49275 3390.7109 L 4250.5652 3261.63845 M 4119.37143 3388.58958 L 4248.44388 3259.51713 M 4117.25011 3386.46826 L 4246.32256 3257.39581 M 4115.12879 3384.34694 L 4244.20124 3255.27449 M 4113.00747 3382.22562 L 4242.07992 3253.15317 M 4110.88615 3380.1043 L 4239.9586 3251.03185 M 4108.76482 3377.98298 L 4237.83728 3248.91052 M 4106.6435 3375.86166 L 4235.71596 3246.7892 M 4104.52218 3373.74034 L 4233.59464 3244.66788 M 4102.40086 3371.61902 L 4231.47332 3242.54656 M 4100.27954 3369.4977 L 4229.352 3240.42524 M 4098.15822 3367.37638 L 4227.23068 3238.30392 M 4096.0369 3365.25506 L 4225.10936 3236.1826 M 4093.91558 3363.13374 L 4222.98804 3234.06128 M 4092.53 3360.27668 L 4220.13098 3232.6757 M 4092.53 3356.03404 L 4215.88834 3232.6757 M 4092.53 3351.7914 L 4211.6457 3232.6757 M 4092.53 3347.54876 L 4207.40306 3232.6757 M 4092.53 3343.30611 L 4203.16041 3232.6757 M 4092.53 3339.06347 L 4198.91777 3232.6757 M 4092.53 3334.82083 L 4194.67513 3232.6757 M 4092.53 3330.57819 L 4190.43249 3232.6757 M 4092.53 3326.33555 L 4186.18985 3232.6757 M 4092.53 3322.09291 L 4181.94721 3232.6757 M 4092.53 3317.85027 L 4177.70457 3232.6757 M 4092.53 3313.60763 L 4173.46193 3232.6757 M 4092.53 3309.36499 L 4169.21929 3232.6757 M 4092.53 3305.12235 L 4164.97665 3232.6757 M 4092.53 3300.87971 L 4160.73401 3232.6757 " stroke-width="1" fill="none" id="gge80_1"/></g><path d="M4156.6182 3428,4091 3362.3818,4091 3296.7639,4156.6182 3231.1457,4222.2361 3231.1457,4287.8543 3296.7639,4287.8543 3362.3818,4222.2361 3428z" stroke="none" id="bottomBoardSolderReal" mask="url(#bottomBoardSolderMask)" fill="#002966"/><g id="bottomSignalReal" fill="#DCAA14" stroke="#DCAA14"><path d="M 4286.3243 3361.74815 L 4221.60245 3426.47 M 4221.60245 3426.47 L 4157.25185 3426.47 M 4157.25185 3426.47 L 4092.53 3361.74815 M 4092.53 3361.74815 L 4092.53 3297.39755 M 4092.53 3297.39755 L 4157.25185 3232.6757 M 4157.25185 3232.6757 L 4221.60245 3232.6757 M 4221.60245 3232.6757 L 4286.3243 3297.39755 M 4286.3243 3297.39755 L 4286.3243 3361.74815 M 4156.28185 3425.5 L 4222.57245 3425.5 M 4153.28185 3422.5 L 4225.57245 3422.5 M 4150.28185 3419.5 L 4228.57245 3419.5 M 4147.28185 3416.5 L 4231.57245 3416.5 M 4144.28185 3413.5 L 4234.57245 3413.5 M 4141.28185 3410.5 L 4237.57245 3410.5 M 4138.28185 3407.5 L 4240.57245 3407.5 M 4135.28185 3404.5 L 4243.57245 3404.5 M 4132.28185 3401.5 L 4246.57245 3401.5 M 4129.28185 3398.5 L 4249.57245 3398.5 M 4126.28185 3395.5 L 4252.57245 3395.5 M 4123.28185 3392.5 L 4255.57245 3392.5 M 4120.28185 3389.5 L 4258.57245 3389.5 M 4117.28185 3386.5 L 4261.57245 3386.5 M 4114.28185 3383.5 L 4264.57245 3383.5 M 4111.28185 3380.5 L 4267.57245 3380.5 M 4108.28185 3377.5 L 4270.57245 3377.5 M 4105.28185 3374.5 L 4273.57245 3374.5 M 4102.28185 3371.5 L 4276.57245 3371.5 M 4099.28185 3368.5 L 4279.57245 3368.5 M 4096.28185 3365.5 L 4282.57245 3365.5 M 4093.28185 3362.5 L 4285.57245 3362.5 M 4092.53 3359.5 L 4286.3243 3359.5 M 4092.53 3356.5 L 4286.3243 3356.5 M 4092.53 3353.5 L 4286.3243 3353.5 M 4092.53 3350.5 L 4286.3243 3350.5 M 4092.53 3347.5 L 4286.3243 3347.5 M 4092.53 3344.5 L 4286.3243 3344.5 M 4092.53 3341.5 L 4286.3243 3341.5 M 4092.53 3338.5 L 4286.3243 3338.5 M 4092.53 3335.5 L 4286.3243 3335.5 M 4092.53 3332.5 L 4286.3243 3332.5 M 4092.53 3329.5 L 4286.3243 3329.5 M 4092.53 3326.5 L 4286.3243 3326.5 M 4092.53 3323.5 L 4286.3243 3323.5 M 4092.53 3320.5 L 4286.3243 3320.5 M 4092.53 3317.5 L 4286.3243 3317.5 M 4092.53 3314.5 L 4286.3243 3314.5 M 4092.53 3311.5 L 4286.3243 3311.5 M 4092.53 3308.5 L 4286.3243 3308.5 M 4092.53 3305.5 L 4286.3243 3305.5 M 4092.53 3302.5 L 4286.3243 3302.5 M 4092.53 3299.5 L 4286.3243 3299.5 M 4093.42755 3296.5 L 4285.42675 3296.5 M 4096.42755 3293.5 L 4282.42675 3293.5 M 4099.42755 3290.5 L 4279.42675 3290.5 M 4102.42755 3287.5 L 4276.42675 3287.5 M 4105.42755 3284.5 L 4273.42675 3284.5 M 4108.42755 3281.5 L 4270.42675 3281.5 M 4111.42755 3278.5 L 4267.42675 3278.5 M 4114.42755 3275.5 L 4264.42675 3275.5 M 4117.42755 3272.5 L 4261.42675 3272.5 M 4120.42755 3269.5 L 4258.42675 3269.5 M 4123.42755 3266.5 L 4255.42675 3266.5 M 4126.42755 3263.5 L 4252.42675 3263.5 M 4129.42755 3260.5 L 4249.42675 3260.5 M 4132.42755 3257.5 L 4246.42675 3257.5 M 4135.42755 3254.5 L 4243.42675 3254.5 M 4138.42755 3251.5 L 4240.42675 3251.5 M 4141.42755 3248.5 L 4237.42675 3248.5 M 4144.42755 3245.5 L 4234.42675 3245.5 M 4147.42755 3242.5 L 4231.42675 3242.5 M 4150.42755 3239.5 L 4228.42675 3239.5 M 4153.42755 3236.5 L 4225.42675 3236.5 M 4156.42755 3233.5 L 4222.42675 3233.5 M 4285.3543 3362.71815 L 4285.3543 3296.42755 M 4282.3543 3365.71815 L 4282.3543 3293.42755 M 4279.3543 3368.71815 L 4279.3543 3290.42755 M 4276.3543 3371.71815 L 4276.3543 3287.42755 M 4273.3543 3374.71815 L 4273.3543 3284.42755 M 4270.3543 3377.71815 L 4270.3543 3281.42755 M 4267.3543 3380.71815 L 4267.3543 3278.42755 M 4264.3543 3383.71815 L 4264.3543 3275.42755 M 4261.3543 3386.71815 L 4261.3543 3272.42755 M 4258.3543 3389.71815 L 4258.3543 3269.42755 M 4255.3543 3392.71815 L 4255.3543 3266.42755 M 4252.3543 3395.71815 L 4252.3543 3263.42755 M 4249.3543 3398.71815 L 4249.3543 3260.42755 M 4246.3543 3401.71815 L 4246.3543 3257.42755 M 4243.3543 3404.71815 L 4243.3543 3254.42755 M 4240.3543 3407.71815 L 4240.3543 3251.42755 M 4237.3543 3410.71815 L 4237.3543 3248.42755 M 4234.3543 3413.71815 L 4234.3543 3245.42755 M 4231.3543 3416.71815 L 4231.3543 3242.42755 M 4228.3543 3419.71815 L 4228.3543 3239.42755 M 4225.3543 3422.71815 L 4225.3543 3236.42755 M 4222.3543 3425.71815 L 4222.3543 3233.42755 M 4219.3543 3426.47 L 4219.3543 3232.6757 M 4216.3543 3426.47 L 4216.3543 3232.6757 M 4213.3543 3426.47 L 4213.3543 3232.6757 M 4210.3543 3426.47 L 4210.3543 3232.6757 M 4207.3543 3426.47 L 4207.3543 3232.6757 M 4204.3543 3426.47 L 4204.3543 3232.6757 M 4201.3543 3426.47 L 4201.3543 3232.6757 M 4198.3543 3426.47 L 4198.3543 3232.6757 M 4195.3543 3426.47 L 4195.3543 3232.6757 M 4192.3543 3426.47 L 4192.3543 3232.6757 M 4189.3543 3426.47 L 4189.3543 3232.6757 M 4186.3543 3426.47 L 4186.3543 3232.6757 M 4183.3543 3426.47 L 4183.3543 3232.6757 M 4180.3543 3426.47 L 4180.3543 3232.6757 M 4177.3543 3426.47 L 4177.3543 3232.6757 M 4174.3543 3426.47 L 4174.3543 3232.6757 M 4171.3543 3426.47 L 4171.3543 3232.6757 M 4168.3543 3426.47 L 4168.3543 3232.6757 M 4165.3543 3426.47 L 4165.3543 3232.6757 M 4162.3543 3426.47 L 4162.3543 3232.6757 M 4159.3543 3426.47 L 4159.3543 3232.6757 M 4156.3543 3425.57245 L 4156.3543 3233.57325 M 4153.3543 3422.57245 L 4153.3543 3236.57325 M 4150.3543 3419.57245 L 4150.3543 3239.57325 M 4147.3543 3416.57245 L 4147.3543 3242.57325 M 4144.3543 3413.57245 L 4144.3543 3245.57325 M 4141.3543 3410.57245 L 4141.3543 3248.57325 M 4138.3543 3407.57245 L 4138.3543 3251.57325 M 4135.3543 3404.57245 L 4135.3543 3254.57325 M 4132.3543 3401.57245 L 4132.3543 3257.57325 M 4129.3543 3398.57245 L 4129.3543 3260.57325 M 4126.3543 3395.57245 L 4126.3543 3263.57325 M 4123.3543 3392.57245 L 4123.3543 3266.57325 M 4120.3543 3389.57245 L 4120.3543 3269.57325 M 4117.3543 3386.57245 L 4117.3543 3272.57325 M 4114.3543 3383.57245 L 4114.3543 3275.57325 M 4111.3543 3380.57245 L 4111.3543 3278.57325 M 4108.3543 3377.57245 L 4108.3543 3281.57325 M 4105.3543 3374.57245 L 4105.3543 3284.57325 M 4102.3543 3371.57245 L 4102.3543 3287.57325 M 4099.3543 3368.57245 L 4099.3543 3290.57325 M 4096.3543 3365.57245 L 4096.3543 3293.57325 M 4093.3543 3362.57245 L 4093.3543 3296.57325 " stroke-width="1" fill="none" id="gge71_2"/></g><g id="bottomSignalSolderReal" mask="url(#bottomSignalSolderMask)" fill="#005CB6" stroke="#005CB6"><path d="M 4286.3243 3361.74815 L 4221.60245 3426.47 M 4221.60245 3426.47 L 4157.25185 3426.47 M 4157.25185 3426.47 L 4092.53 3361.74815 M 4092.53 3361.74815 L 4092.53 3297.39755 M 4092.53 3297.39755 L 4157.25185 3232.6757 M 4157.25185 3232.6757 L 4221.60245 3232.6757 M 4221.60245 3232.6757 L 4286.3243 3297.39755 M 4286.3243 3297.39755 L 4286.3243 3361.74815 M 4156.28185 3425.5 L 4222.57245 3425.5 M 4153.28185 3422.5 L 4225.57245 3422.5 M 4150.28185 3419.5 L 4228.57245 3419.5 M 4147.28185 3416.5 L 4231.57245 3416.5 M 4144.28185 3413.5 L 4234.57245 3413.5 M 4141.28185 3410.5 L 4237.57245 3410.5 M 4138.28185 3407.5 L 4240.57245 3407.5 M 4135.28185 3404.5 L 4243.57245 3404.5 M 4132.28185 3401.5 L 4246.57245 3401.5 M 4129.28185 3398.5 L 4249.57245 3398.5 M 4126.28185 3395.5 L 4252.57245 3395.5 M 4123.28185 3392.5 L 4255.57245 3392.5 M 4120.28185 3389.5 L 4258.57245 3389.5 M 4117.28185 3386.5 L 4261.57245 3386.5 M 4114.28185 3383.5 L 4264.57245 3383.5 M 4111.28185 3380.5 L 4267.57245 3380.5 M 4108.28185 3377.5 L 4270.57245 3377.5 M 4105.28185 3374.5 L 4273.57245 3374.5 M 4102.28185 3371.5 L 4276.57245 3371.5 M 4099.28185 3368.5 L 4279.57245 3368.5 M 4096.28185 3365.5 L 4282.57245 3365.5 M 4093.28185 3362.5 L 4285.57245 3362.5 M 4092.53 3359.5 L 4286.3243 3359.5 M 4092.53 3356.5 L 4286.3243 3356.5 M 4092.53 3353.5 L 4286.3243 3353.5 M 4092.53 3350.5 L 4286.3243 3350.5 M 4092.53 3347.5 L 4286.3243 3347.5 M 4092.53 3344.5 L 4286.3243 3344.5 M 4092.53 3341.5 L 4286.3243 3341.5 M 4092.53 3338.5 L 4286.3243 3338.5 M 4092.53 3335.5 L 4286.3243 3335.5 M 4092.53 3332.5 L 4286.3243 3332.5 M 4092.53 3329.5 L 4286.3243 3329.5 M 4092.53 3326.5 L 4286.3243 3326.5 M 4092.53 3323.5 L 4286.3243 3323.5 M 4092.53 3320.5 L 4286.3243 3320.5 M 4092.53 3317.5 L 4286.3243 3317.5 M 4092.53 3314.5 L 4286.3243 3314.5 M 4092.53 3311.5 L 4286.3243 3311.5 M 4092.53 3308.5 L 4286.3243 3308.5 M 4092.53 3305.5 L 4286.3243 3305.5 M 4092.53 3302.5 L 4286.3243 3302.5 M 4092.53 3299.5 L 4286.3243 3299.5 M 4093.42755 3296.5 L 4285.42675 3296.5 M 4096.42755 3293.5 L 4282.42675 3293.5 M 4099.42755 3290.5 L 4279.42675 3290.5 M 4102.42755 3287.5 L 4276.42675 3287.5 M 4105.42755 3284.5 L 4273.42675 3284.5 M 4108.42755 3281.5 L 4270.42675 3281.5 M 4111.42755 3278.5 L 4267.42675 3278.5 M 4114.42755 3275.5 L 4264.42675 3275.5 M 4117.42755 3272.5 L 4261.42675 3272.5 M 4120.42755 3269.5 L 4258.42675 3269.5 M 4123.42755 3266.5 L 4255.42675 3266.5 M 4126.42755 3263.5 L 4252.42675 3263.5 M 4129.42755 3260.5 L 4249.42675 3260.5 M 4132.42755 3257.5 L 4246.42675 3257.5 M 4135.42755 3254.5 L 4243.42675 3254.5 M 4138.42755 3251.5 L 4240.42675 3251.5 M 4141.42755 3248.5 L 4237.42675 3248.5 M 4144.42755 3245.5 L 4234.42675 3245.5 M 4147.42755 3242.5 L 4231.42675 3242.5 M 4150.42755 3239.5 L 4228.42675 3239.5 M 4153.42755 3236.5 L 4225.42675 3236.5 M 4156.42755 3233.5 L 4222.42675 3233.5 M 4285.3543 3362.71815 L 4285.3543 3296.42755 M 4282.3543 3365.71815 L 4282.3543 3293.42755 M 4279.3543 3368.71815 L 4279.3543 3290.42755 M 4276.3543 3371.71815 L 4276.3543 3287.42755 M 4273.3543 3374.71815 L 4273.3543 3284.42755 M 4270.3543 3377.71815 L 4270.3543 3281.42755 M 4267.3543 3380.71815 L 4267.3543 3278.42755 M 4264.3543 3383.71815 L 4264.3543 3275.42755 M 4261.3543 3386.71815 L 4261.3543 3272.42755 M 4258.3543 3389.71815 L 4258.3543 3269.42755 M 4255.3543 3392.71815 L 4255.3543 3266.42755 M 4252.3543 3395.71815 L 4252.3543 3263.42755 M 4249.3543 3398.71815 L 4249.3543 3260.42755 M 4246.3543 3401.71815 L 4246.3543 3257.42755 M 4243.3543 3404.71815 L 4243.3543 3254.42755 M 4240.3543 3407.71815 L 4240.3543 3251.42755 M 4237.3543 3410.71815 L 4237.3543 3248.42755 M 4234.3543 3413.71815 L 4234.3543 3245.42755 M 4231.3543 3416.71815 L 4231.3543 3242.42755 M 4228.3543 3419.71815 L 4228.3543 3239.42755 M 4225.3543 3422.71815 L 4225.3543 3236.42755 M 4222.3543 3425.71815 L 4222.3543 3233.42755 M 4219.3543 3426.47 L 4219.3543 3232.6757 M 4216.3543 3426.47 L 4216.3543 3232.6757 M 4213.3543 3426.47 L 4213.3543 3232.6757 M 4210.3543 3426.47 L 4210.3543 3232.6757 M 4207.3543 3426.47 L 4207.3543 3232.6757 M 4204.3543 3426.47 L 4204.3543 3232.6757 M 4201.3543 3426.47 L 4201.3543 3232.6757 M 4198.3543 3426.47 L 4198.3543 3232.6757 M 4195.3543 3426.47 L 4195.3543 3232.6757 M 4192.3543 3426.47 L 4192.3543 3232.6757 M 4189.3543 3426.47 L 4189.3543 3232.6757 M 4186.3543 3426.47 L 4186.3543 3232.6757 M 4183.3543 3426.47 L 4183.3543 3232.6757 M 4180.3543 3426.47 L 4180.3543 3232.6757 M 4177.3543 3426.47 L 4177.3543 3232.6757 M 4174.3543 3426.47 L 4174.3543 3232.6757 M 4171.3543 3426.47 L 4171.3543 3232.6757 M 4168.3543 3426.47 L 4168.3543 3232.6757 M 4165.3543 3426.47 L 4165.3543 3232.6757 M 4162.3543 3426.47 L 4162.3543 3232.6757 M 4159.3543 3426.47 L 4159.3543 3232.6757 M 4156.3543 3425.57245 L 4156.3543 3233.57325 M 4153.3543 3422.57245 L 4153.3543 3236.57325 M 4150.3543 3419.57245 L 4150.3543 3239.57325 M 4147.3543 3416.57245 L 4147.3543 3242.57325 M 4144.3543 3413.57245 L 4144.3543 3245.57325 M 4141.3543 3410.57245 L 4141.3543 3248.57325 M 4138.3543 3407.57245 L 4138.3543 3251.57325 M 4135.3543 3404.57245 L 4135.3543 3254.57325 M 4132.3543 3401.57245 L 4132.3543 3257.57325 M 4129.3543 3398.57245 L 4129.3543 3260.57325 M 4126.3543 3395.57245 L 4126.3543 3263.57325 M 4123.3543 3392.57245 L 4123.3543 3266.57325 M 4120.3543 3389.57245 L 4120.3543 3269.57325 M 4117.3543 3386.57245 L 4117.3543 3272.57325 M 4114.3543 3383.57245 L 4114.3543 3275.57325 M 4111.3543 3380.57245 L 4111.3543 3278.57325 M 4108.3543 3377.57245 L 4108.3543 3281.57325 M 4105.3543 3374.57245 L 4105.3543 3284.57325 M 4102.3543 3371.57245 L 4102.3543 3287.57325 M 4099.3543 3368.57245 L 4099.3543 3290.57325 M 4096.3543 3365.57245 L 4096.3543 3293.57325 M 4093.3543 3362.57245 L 4093.3543 3296.57325 " stroke-width="1" fill="none" id="gge71_2"/></g></g></g></svg>